<svg xmlns="http://www.w3.org/2000/svg" viewBox="0 0 103.7 92.73" class="majaz-logo" fill="currentColor">
  <!-- Main brand elements: inherits currentColor from parent for theme inversion -->
  <g class="majaz-brand-main">
    <path d="M27.26,0c0,.25,0,.5,0,.75V54.16c0,.21.06.26.3.27H103.4q.22,0,.24.27v9.93c0,.14,0,.27,0,.41s-.1.16-.18.17H16.62a.17.17,0,0,1-.18-.16c0-.18,0-.36,0-.55V.41c0-.14,0-.27,0-.41Z"/>
    <path d="M0,92.73a1.18,1.18,0,0,0,0-.2c0-.18,0-.36,0-.54V47.16c0-.23,0-.46,0-.69a.22.22,0,0,1,.22-.21H10.69s.13.09.14.13,0,.13,0,.2V91.71c0,.34,0,.68,0,1Z"/>
    <path d="M54.59,29.87H70.67c.13,0,.2.08.2.23s0,.41,0,.61v20.2a4.89,4.89,0,0,1,0,.54s0,.08-.09.1a.31.31,0,0,1-.13,0H60.84c-.2,0-.41,0-.61,0,0,0-.07,0-.09-.09a.25.25,0,0,1,0-.13c0-.2,0-.41,0-.61V41.41c0-.21,0-.41,0-.62A.26.26,0,0,0,60,40.7a.32.32,0,0,0-.14,0H38.49c-.15,0-.23-.09-.24-.26V30.54a5.07,5.07,0,0,1,0-.55s0-.07.08-.09a.32.32,0,0,1,.14,0H54.59Z"/>
    <path d="M10.84,35.27v4.65c0,.19,0,.37,0,.55a.2.2,0,0,1-.17.19H.26a.19.19,0,0,1-.19-.17c0-.11,0-.22,0-.34V30.36c0-.11,0-.23,0-.34a.2.2,0,0,1,.13-.14H10.4a1.2,1.2,0,0,1,.27,0c.06,0,.14.07.14.12a2.58,2.58,0,0,1,0,.48Z"/>
    <path d="M65.61,80.41H60.54c-.24,0-.29-.05-.3-.26V69.94c0-.28.06-.33.31-.33H70.82a.18.18,0,0,1,.18.17c0,.13,0,.27,0,.4v9.66c0,.13,0,.27,0,.41a.26.26,0,0,1-.13.14H65.61Z"/>
  </g>
  <!-- Blue accent: static #2877b9, used as brand-blue throughout the design system -->
  <g class="majaz-brand-blue" fill="#2877b9">
    <path d="M92.73,51.64h10.2c.2,0,.41,0,.61,0a.23.23,0,0,0,.13-.14,2.73,2.73,0,0,0,0-.41V41.28a2.62,2.62,0,0,0,0-.28c0-.18,0-.3-.27-.3H82.68l-.62,0a.2.2,0,0,0-.17.18c0,.19,0,.37,0,.55v9.45c0,.15,0,.31,0,.47s.08.26.24.27H92.73Z"/>
  </g>
</svg>