<svg xmlns="http://www.w3.org/2000/svg" viewBox="0 0 4146 2953" fill="currentColor" fill-rule="evenodd" class="majaz-logo-svg">
    <path d="M 3515 2322 L 3516 2321 L 3517 2321 L 3518 2322 L 3519 2321 L 4143 2321 L 4145 2323 L 4145 2950 L 4143 2952 L 4136 2952 L 4135 2951 L 3518 2951 L 3517 2952 L 3515 2950 Z" /><path d="M 2232 1 L 2233 0 L 4136 0 L 4137 1 L 4137 1266 L 4135 1268 L 3508 1268 L 3507 1267 L 3507 633 L 3506 632 L 3506 631 L 3505 630 L 2232 630 L 2231 629 L 2232 628 Z" /><path d="M 0 1 L 1 0 L 629 0 L 630 1 L 630 629 L 629 630 L 2 630 L 0 628 L 1 627 L 0 626 L 0 8 L 1 7 L 1 5 L 0 4 Z" />
</svg>